<?xml version="1.0" encoding="UTF-8"?>
<svg xmlns="http://www.w3.org/2000/svg" xmlns:xlink="http://www.w3.org/1999/xlink" width="810pt" height="809.999993pt" viewBox="0 0 810 809.999993" version="1.2">
<g id="surface1">
<path style=" stroke:none;fill-rule:nonzero;fill:rgb(33.329773%,67.83905%,94.509888%);fill-opacity:1;" d="M 782.117188 329.167969 C 775.855469 342.214844 763.976562 353.292969 751.898438 357.359375 C 746.882812 359.054688 744.1875 364.492188 745.886719 369.507812 C 747.234375 373.5 750.949219 376.019531 754.941406 376.019531 C 755.964844 376.019531 757.015625 375.867188 758.011719 375.519531 C 761.230469 374.421875 764.375 372.949219 767.445312 371.277344 C 732.558594 425.289062 636.863281 495.660156 545.410156 545.078125 C 463.589844 589.308594 293.058594 651.597656 172.984375 604.601562 C 122.128906 584.71875 86.847656 546.75 68.058594 491.742188 C 66.757812 487.976562 68.929688 485.558594 69.929688 484.683594 C 70.902344 483.835938 73.496094 482.015625 77.015625 483.761719 C 168.195312 528.789062 338.699219 504.015625 434.746094 431.796875 C 534.757812 356.585938 556.941406 256.203125 576.527344 167.667969 C 578.375 159.3125 580.195312 151.03125 582.066406 142.824219 C 584.835938 130.773438 594.621094 126.933594 603.101562 128.402344 C 612.1875 130 622.019531 138.207031 619.796875 156.019531 C 617.300781 175.800781 618.875 220.878906 633.769531 240.4375 C 643.152344 252.761719 654.082031 256.875 669.253906 253.832031 C 693.332031 249.019531 731.636719 227.265625 746.785156 216.710938 C 754.820312 211.101562 763.875 214.617188 769.292969 220.578125 C 774.980469 226.816406 778.449219 237.890625 769.464844 248.492188 C 756.816406 263.410156 742.890625 270.023438 728.144531 276.984375 C 725.300781 278.355469 722.429688 279.703125 719.585938 281.097656 C 714.867188 283.445312 712.921875 289.207031 715.269531 293.945312 C 717.613281 298.6875 723.378906 300.632812 728.117188 298.261719 C 730.863281 296.914062 733.609375 295.617188 736.351562 294.296875 C 751.75 287.011719 767.667969 279.378906 782.542969 262.5625 C 784.9375 269.023438 785.285156 275.285156 783.566406 281.421875 C 778.5 299.382812 756.941406 313.726562 738.472656 321.164062 C 733.558594 323.15625 731.1875 328.722656 733.160156 333.636719 C 734.679688 337.378906 738.273438 339.648438 742.066406 339.648438 C 743.242188 339.648438 744.464844 339.398438 745.636719 338.921875 C 753.171875 335.90625 772.660156 327.050781 787.03125 311.832031 C 786.285156 318.765625 784.3125 324.65625 782.117188 329.167969 Z M 741.941406 491.742188 C 723.152344 546.75 687.84375 584.71875 637.015625 604.601562 C 578.324219 627.574219 507.558594 624.382812 441.007812 609.988281 C 485.824219 595.320312 525.597656 577.582031 554.519531 561.941406 C 581.96875 547.125 615.03125 527.417969 647.917969 505.113281 C 679.835938 502.46875 709.152344 495.535156 732.984375 483.761719 C 736.476562 482.015625 739.097656 483.835938 740.070312 484.683594 C 741.070312 485.558594 743.214844 487.976562 741.941406 491.742188 Z M 42.605469 371.304688 C 45.675781 372.949219 48.792969 374.445312 51.988281 375.519531 C 52.984375 375.867188 54.035156 376.019531 55.058594 376.019531 C 59.050781 376.019531 62.765625 373.5 64.113281 369.507812 C 65.8125 364.492188 63.117188 359.054688 58.101562 357.359375 C 46.023438 353.292969 34.144531 342.214844 27.859375 329.167969 C 25.6875 324.628906 23.664062 318.742188 22.917969 311.78125 C 37.316406 327.023438 56.828125 335.90625 64.363281 338.921875 C 65.535156 339.398438 66.734375 339.648438 67.933594 339.648438 C 71.75 339.648438 75.320312 337.378906 76.839844 333.636719 C 78.8125 328.722656 76.441406 323.15625 71.527344 321.164062 C 53.058594 313.726562 31.5 299.382812 26.433594 281.421875 C 24.714844 275.285156 25.0625 269.023438 27.457031 262.539062 C 42.332031 279.378906 58.25 287.011719 73.648438 294.296875 C 76.390625 295.617188 79.136719 296.914062 81.882812 298.261719 C 86.621094 300.605469 92.363281 298.6875 94.730469 293.945312 C 97.078125 289.207031 95.132812 283.445312 90.414062 281.097656 C 87.570312 279.703125 84.699219 278.355469 81.855469 276.984375 C 67.109375 270.023438 53.183594 263.410156 40.558594 248.492188 C 31.550781 237.890625 35.019531 226.816406 40.707031 220.578125 C 46.125 214.617188 55.179688 211.101562 63.214844 216.710938 C 78.363281 227.265625 116.667969 249.019531 140.746094 253.832031 C 155.941406 256.875 166.847656 252.761719 176.230469 240.4375 C 191.125 220.878906 192.699219 175.800781 190.203125 156.019531 C 187.980469 138.207031 197.8125 130 206.898438 128.402344 C 215.40625 126.933594 225.164062 130.773438 227.933594 142.824219 C 229.804688 151.03125 231.625 159.3125 233.472656 167.667969 C 253.058594 256.203125 275.242188 356.585938 375.253906 431.796875 C 378.925781 434.566406 382.765625 437.238281 386.660156 439.855469 C 319.683594 476.328125 236.765625 491.144531 168.941406 486.429688 C 113.148438 447.914062 65.164062 406.203125 42.605469 371.304688 Z M 802.777344 283.070312 C 805.574219 269.5 802.429688 255.726562 793.371094 242.007812 C 795.917969 228.863281 791.148438 216.113281 783.464844 207.683594 C 777.25 200.847656 769.539062 196.753906 761.582031 195.332031 C 726.871094 121.816406 659.597656 74.046875 578.699219 74.046875 C 515.191406 74.046875 454.382812 103.082031 411.960938 153.75 C 408.320312 158.140625 401.679688 158.140625 398.039062 153.75 C 355.617188 103.082031 294.808594 74.046875 231.300781 74.046875 C 150.351562 74.046875 83.105469 121.816406 48.394531 195.332031 C 40.433594 196.753906 32.75 200.847656 26.535156 207.683594 C 18.851562 216.113281 14.082031 228.863281 16.628906 242.007812 C 7.597656 255.726562 4.425781 269.5 7.222656 283.070312 C 0.132812 305.023438 4.277344 323.234375 9.691406 335.382812 C 10.117188 353.144531 19.125 372.476562 33.722656 392.257812 C 39.886719 416.980469 48.820312 442.773438 60.121094 468.144531 C 59.125 468.792969 58.175781 469.492188 57.277344 470.265625 C 49.417969 477.175781 46.546875 488.027344 49.917969 497.957031 C 70.628906 558.523438 109.679688 600.410156 166 622.460938 C 173.085938 625.230469 180.371094 627.574219 187.757812 629.671875 C 282.304688 705.730469 359.761719 728.082031 391.25 734.445312 C 395.867188 735.316406 400.457031 735.765625 405 735.765625 C 409.589844 735.765625 414.207031 735.316406 418.75 734.445312 C 450.339844 728.058594 527.769531 705.730469 622.34375 629.644531 C 629.679688 627.550781 636.941406 625.207031 644 622.460938 C 700.320312 600.410156 739.398438 558.523438 760.082031 497.929688 C 763.453125 488.027344 760.558594 477.175781 752.722656 470.265625 C 751.824219 469.492188 750.902344 468.816406 749.953125 468.195312 C 761.179688 442.898438 769.890625 417.203125 776.078125 392.558594 C 790.800781 372.675781 799.882812 353.242188 800.308594 335.382812 C 805.722656 323.234375 809.867188 305.023438 802.777344 283.070312 "/>
</g>
</svg>
